<svg width="24" height="24" viewBox="0 0 24 24" fill="none" xmlns="http://www.w3.org/2000/svg">
<path d="M12 19C15.866 19 19 15.866 19 12C19 8.13401 15.866 5 12 5C8.13401 5 5 8.13401 5 12C5 15.866 8.13401 19 12 19Z" stroke="#1E1E1E" stroke-width="2"/>
<path d="M5.96474 3.13623C5.28635 3.31792 4.66774 3.67502 4.17114 4.17163C3.67453 4.66823 3.31743 5.28683 3.13574 5.96523M18.0347 3.13623C18.7131 3.31792 19.3317 3.67502 19.8283 4.17163C20.3249 4.66823 20.6821 5.28683 20.8637 5.96523M11.9997 8.00023V11.7502C11.9997 11.8882 12.1117 12.0002 12.2497 12.0002H14.9997" stroke="#1E1E1E" stroke-width="2" stroke-linecap="round"/>
</svg>
