<svg width="24" height="24" viewBox="0 0 24 24" fill="none" xmlns="http://www.w3.org/2000/svg">
<path d="M22.0131 2.167C21.6731 1.72459 21.2357 1.36658 20.7347 1.12082C20.2338 0.875052 19.683 0.748163 19.125 0.75002H18.5446L15.9196 10.875H1.875V12.375C1.875 14.5539 2.74763 16.5059 4.33205 17.8714C5.83125 19.1635 7.8885 19.875 10.125 19.875H11.9121L11.5371 23.25H21V11.7206L22.6599 5.31822C22.8017 4.7786 22.8171 4.21354 22.705 3.66699C22.5928 3.12044 22.356 2.60713 22.0131 2.167ZM19.5 21.75H13.2129L13.5879 18.375H10.125C6.1507 18.375 3.375 15.9077 3.375 12.375H19.5V21.75ZM21.2079 4.94177L19.6696 10.875H17.4692L19.6864 2.32333C20.2336 2.4717 20.7002 2.82981 20.9851 3.32C21.2699 3.81018 21.35 4.39291 21.208 4.94177H21.2079Z" fill="#1E1E1E"/>
</svg>
