<svg width="20" height="12" viewBox="0 0 20 12" fill="none" xmlns="http://www.w3.org/2000/svg">
<mask id="mask0_75_95" style="mask-type:alpha" maskUnits="userSpaceOnUse" x="0" y="0" width="20" height="12">
<rect width="20" height="12" transform="matrix(1 0 0 -1 0 12)" fill="#1E1E1E"/>
</mask>
<g mask="url(#mask0_75_95)">
<path d="M5 9.68381V11.0238C5 11.289 5.10536 11.5434 5.29289 11.7309C5.48043 11.9185 5.73478 12.0238 6 12.0238H14C14.2652 12.0238 14.5196 11.9185 14.7071 11.7309C14.8946 11.5434 15 11.289 15 11.0238V9.68381C16.5202 8.80615 17.7825 7.54381 18.6602 6.02367C19.5379 4.50353 20 2.77914 20 1.02381C20 0.758597 19.8946 0.504243 19.7071 0.316707C19.5196 0.12917 19.2652 0.0238132 19 0.0238132C18.9817 -0.588458 18.8066 -1.18579 18.4914 -1.71104C18.1763 -2.23629 17.7316 -2.6719 17.2 -2.97619C17.0725 -3.84725 16.6354 -4.64318 15.9686 -5.21806C15.3019 -5.79294 14.4503 -6.10825 13.57 -6.10619C13.2325 -6.10521 12.8965 -6.06153 12.57 -5.97619C11.8817 -6.63333 10.9666 -7 10.015 -7C9.06336 -7 8.14831 -6.63333 7.46 -5.97619C7.13349 -6.06153 6.79748 -6.10521 6.46 -6.10619C5.57623 -6.11308 4.71981 -5.79996 4.04892 -5.22464C3.37802 -4.64932 2.93795 -3.85067 2.81 -2.97619C2.27652 -2.67315 1.82987 -2.23808 1.51291 -1.71275C1.19596 -1.18741 1.01934 -0.589428 1 0.0238132C0.734784 0.0238132 0.48043 0.12917 0.292893 0.316707C0.105357 0.504243 0 0.758597 0 1.02381C4.45922e-05 2.77914 0.462128 4.50353 1.33981 6.02367C2.21749 7.54381 3.47985 8.80615 5 9.68381ZM4.11 -1.31619L4.94 -1.57619L4.78 -2.47619C4.78261 -2.69156 4.82762 -2.90431 4.91246 -3.10228C4.9973 -3.30026 5.1203 -3.47959 5.27445 -3.63002C5.4286 -3.78045 5.61087 -3.89905 5.81086 -3.97904C6.01084 -4.05902 6.22463 -4.09883 6.44 -4.09619C6.7287 -4.09705 7.01338 -4.02845 7.27 -3.89619L8.08 -3.44619L8.58 -4.21619C8.73637 -4.44925 8.9477 -4.64024 9.19535 -4.77231C9.44299 -4.90437 9.71934 -4.97345 10 -4.97345C10.2807 -4.97345 10.557 -4.90437 10.8047 -4.77231C11.0523 -4.64024 11.2636 -4.44925 11.42 -4.21619L11.92 -3.44619L12.73 -3.89619C12.9866 -4.02845 13.2713 -4.09705 13.56 -4.09619C13.9925 -4.10163 14.4099 -3.937 14.7222 -3.63775C15.0346 -3.33849 15.2169 -2.92855 15.23 -2.49619L15.07 -1.64619L15.89 -1.36619C16.1925 -1.27152 16.4598 -1.08861 16.6576 -0.840935C16.8554 -0.593259 16.9746 -0.292124 17 0.0238132H3C3.0254 -0.292124 3.14465 -0.593259 3.34243 -0.840935C3.54022 -1.08861 3.80751 -1.27152 4.11 -1.36619V-1.31619ZM17.94 2.02381C17.7732 3.33304 17.285 4.58064 16.519 5.65544C15.7531 6.73024 14.7331 7.59884 13.55 8.18381C13.3836 8.26767 13.2439 8.39638 13.1467 8.5554C13.0495 8.71443 12.9987 8.89745 13 9.08381V10.0238H7V9.08381C7.0013 8.89745 6.95049 8.71443 6.85331 8.5554C6.75612 8.39638 6.61644 8.26767 6.45 8.18381C5.26691 7.59884 4.24693 6.73024 3.48096 5.65544C2.71499 4.58064 2.22684 3.33304 2.06 2.02381H17.94Z" fill="#1E1E1E"/>
<path d="M17.94 2.02381C17.7732 3.33304 17.285 4.58064 16.519 5.65544C15.7531 6.73024 14.7331 7.59884 13.55 8.18381C13.3836 8.26767 13.2439 8.39638 13.1467 8.5554C13.0495 8.71443 12.9987 8.89745 13 9.08381V10.0238H7V9.08381C7.0013 8.89745 6.95049 8.71443 6.85331 8.5554C6.75612 8.39638 6.61644 8.26767 6.45 8.18381C5.26691 7.59884 4.24693 6.73024 3.48096 5.65544C2.71499 4.58064 2.22684 3.33304 2.06 2.02381H17.94Z" fill="#FFD737"/>
</g>
</svg>
