<svg width="14" height="20" viewBox="0 0 14 20" fill="none" xmlns="http://www.w3.org/2000/svg">
<path d="M7 0.5L6.125 1.46962C6.125 1.46962 4.63167 3.14338 3.12667 5.31349C1.62167 7.4836 0 10.0808 0 12.5741C0 14.411 0.737498 16.1726 2.05025 17.4715C3.36301 18.7703 5.14348 19.5 7 19.5C8.85652 19.5 10.637 18.7703 11.9497 17.4715C13.2625 16.1726 14 14.411 14 12.5741C14 10.0808 12.3783 7.4836 10.8733 5.31349C9.36833 3.14338 7.875 1.46962 7.875 1.46962L7 0.5ZM7 4.113C7.51333 4.71324 7.98 5.2096 8.96 6.61786C10.3717 8.64945 11.6667 11.2351 11.6667 12.5741C11.6667 15.1367 9.59 17.1914 7 17.1914C4.41 17.1914 2.33333 15.1367 2.33333 12.5741C2.33333 11.2351 3.62833 8.64945 5.04 6.61786C6.02 5.2096 6.48667 4.71324 7 4.113Z" fill="#1E1E1E"/>
<path d="M7 4.113C7.51333 4.71324 7.98 5.2096 8.96 6.61786C10.3717 8.64945 11.6667 11.2351 11.6667 12.5741C11.6667 15.1367 9.59 17.1914 7 17.1914C4.41 17.1914 2.33333 15.1367 2.33333 12.5741C2.33333 11.2351 3.62833 8.64945 5.04 6.61786C6.02 5.2096 6.48667 4.71324 7 4.113Z" fill="#5C9BFF"/>
</svg>
