<?xml version="1.0" encoding="UTF-8"?>
<svg id="Layer_1" xmlns="http://www.w3.org/2000/svg" version="1.1" viewBox="0 0 20 20">
  <!-- Generator: Adobe Illustrator 29.8.2, SVG Export Plug-In . SVG Version: 2.1.1 Build 3)  -->
  <defs>
    <style>
      .st0 {
        fill: #ffd737;
      }

      .st1 {
        fill: #1e1e1e;
      }
    </style>
  </defs>
  <path class="st1" d="M19.71,7.8c-.19-.19-.44-.29-.71-.29,0-.05-.01-.1-.01-.15-.35.07-.72.11-1.12.11-.31,0-.61-.03-.89-.08,0,.04.02.07.03.11H3s.02-.07.03-.11c-.33.07-.69.1-1.07.1-.34,0-.65-.03-.95-.08,0,.03,0,.06,0,.09-.27,0-.52.11-.71.29-.19.19-.29.44-.29.71,0,1.76.46,3.48,1.34,5,.88,1.52,2.14,2.78,3.66,3.66v1.34c0,.27.11.52.29.71.19.19.44.29.71.29h8c.27,0,.52-.11.71-.29s.29-.44.29-.71v-1.34c1.52-.88,2.78-2.14,3.66-3.66.88-1.52,1.34-3.24,1.34-5,0-.27-.11-.52-.29-.71ZM16.52,13.14c-.77,1.07-1.79,1.94-2.97,2.53-.17.08-.31.21-.4.37-.1.16-.15.34-.15.53v.94h-6v-.94c0-.19-.05-.37-.15-.53-.1-.16-.24-.29-.4-.37-1.18-.59-2.2-1.45-2.97-2.53-.77-1.07-1.25-2.32-1.42-3.63h15.88c-.17,1.31-.66,2.56-1.42,3.63Z"/>
  <path class="st0" d="M17.94,9.51c-.17,1.31-.66,2.56-1.42,3.63-.77,1.07-1.79,1.94-2.97,2.53-.17.08-.31.21-.4.37-.1.16-.15.34-.15.53v.94h-6v-.94c0-.19-.05-.37-.15-.53-.1-.16-.24-.29-.4-.37-1.18-.59-2.2-1.45-2.97-2.53-.77-1.07-1.25-2.32-1.42-3.63h15.88Z"/>
</svg>